<svg xmlns="http://www.w3.org/2000/svg" width="512" height="512" viewBox="0 0 60 60"><path xmlns="http://www.w3.org/2000/svg" d="M59 46a13 13 0 11-26 0v-.11A13 13 0 0159 46z" fill="#e8edfc" data-original="#e8edfc"/><path xmlns="http://www.w3.org/2000/svg" d="M46 33a13.228 13.228 0 00-1.5.093 12.993 12.993 0 01.006 25.813A13.136 13.136 0 0046 59a13 13 0 000-26z" fill="#cad9fc" data-original="#cad9fc"/><path xmlns="http://www.w3.org/2000/svg" d="M48.72 20.66l-8.11 8.06a.942.942 0 01-1.61-.66V24a10 10 0 00-10 10v7.94a8.981 8.981 0 00-8 0V34a10 10 0 00-10-10v4.06a.942.942 0 01-1.61.66l-8.11-8.06a.924.924 0 010-1.32l8.11-8.06a.942.942 0 011.61.66V16c4 0 6.5 1 8 2a5.988 5.988 0 012 2v-9h-4.06a.942.942 0 01-.66-1.61l8.06-8.11a.924.924 0 011.32 0l8.06 8.11a.942.942 0 01-.66 1.61H29v9s2-4 10-4v-4.06a.942.942 0 011.61-.66l8.11 8.06a.924.924 0 010 1.32z" fill="#c6d8fb" data-original="#c6d8fb"/><path xmlns="http://www.w3.org/2000/svg" d="M48.72 19.34l-8.11-8.06a.942.942 0 00-1.61.66v.721l6.72 6.679a.924.924 0 010 1.32L39 27.339v.721a.942.942 0 001.61.66l8.11-8.06a.924.924 0 000-1.32zM36 24a10 10 0 00-10 10v7.059a8.9 8.9 0 013 .881V34a10.009 10.009 0 017-9.54z" fill="#a4c3fd" data-original="#a4c3fd"/><path xmlns="http://www.w3.org/2000/svg" d="M33.95 50.89A9 9 0 1129 41.94a9.09 9.09 0 014 3.95V46a13.026 13.026 0 00.95 4.89z" fill="#e8edfc" data-original="#e8edfc"/><path xmlns="http://www.w3.org/2000/svg" d="M33 46v-.11a9.09 9.09 0 00-4-3.95 8.925 8.925 0 00-4-.94 9.051 9.051 0 00-1.5.14 8.916 8.916 0 012.5.8 9.09 9.09 0 014 3.95V46a13.026 13.026 0 00.95 4.89 8.99 8.99 0 01-7.44 7.977 8.942 8.942 0 0010.44-7.977A13.026 13.026 0 0133 46z" fill="#cad9fc" data-original="#cad9fc"/><g xmlns="http://www.w3.org/2000/svg" fill="#fff"><path d="M26.51 58.867A8.992 8.992 0 0124 41.94V34a10 10 0 00-10-10v.46A10.007 10.007 0 0121 34v7.94a9 9 0 005.51 16.927zM1.28 20.66l8.11 8.06a.942.942 0 001.61-.66v-.721L4.28 20.66a.924.924 0 010-1.32L11 12.661v-.721a.942.942 0 00-1.61-.66l-8.11 8.06a.924.924 0 000 1.32z" data-original="#ffffff"/><path d="M19.997 33.946l2-.012L22 41.94h-2z" data-original="#ffffff"/></g><path xmlns="http://www.w3.org/2000/svg" d="M46 32a14.022 14.022 0 00-13.709 11.159A9.937 9.937 0 0030 41.351V34a9.007 9.007 0 018-8.946v3.006a1.942 1.942 0 003.315 1.368l8.1-8.052a1.924 1.924 0 00.008-2.746l-8.11-8.059A1.942 1.942 0 0038 11.938v3.081a13.934 13.934 0 00-8 2.467V12h3.061a1.942 1.942 0 001.369-3.317L26.377.58a1.976 1.976 0 00-2.746-.008l-8.06 8.11A1.942 1.942 0 0016.939 12H20v5.485a9.568 9.568 0 00-.446-.316A14.525 14.525 0 0012 15.019v-3.081a1.942 1.942 0 00-3.315-1.369l-8.1 8.052a1.924 1.924 0 00-.009 2.747l8.109 8.057A1.942 1.942 0 0012 28.06v-3a9 9 0 018 8.887 1.006 1.006 0 001 .994.994.994 0 001-1.006A11 11 0 0011 23a1 1 0 00-1 1v3.918l-8.018-7.87L10 12.082V16a1 1 0 001 1c3.884 0 6.192 1 7.445 1.833a5.259 5.259 0 011.661 1.615A1 1 0 0022 20v-9a1 1 0 00-1-1h-3.919l7.87-8.016L32.917 10H29a1 1 0 00-1 1v9a1 1 0 00.761.965 1.016 1.016 0 001.128-.507C29.964 20.316 31.814 17 39 17a1 1 0 001-1v-3.92l8.017 7.87L40 27.915V24a1 1 0 00-1-1 11.006 11.006 0 00-11 11v6.473a9.993 9.993 0 106.3 13.2A14 14 0 1046 32zM25 58a8 8 0 117.009-11.821 13.906 13.906 0 00.92 4.794A7.95 7.95 0 0125 58zm21 0a12 12 0 1112-12 12.013 12.013 0 01-12 12z" fill="#1c73bd" data-original="#428dff"/><path xmlns="http://www.w3.org/2000/svg" d="M50.219 40.375l-7.3 9.128-1.21-1.21a1 1 0 00-1.414 1.414l2 2A.993.993 0 0043 52h.056a1 1 0 00.725-.373l8-10a1 1 0 10-1.562-1.25zM21.02 38.94a1 1 0 01-.01-2h.01a1 1 0 010 2z" fill="#1c73bd" data-original="#428dff"/></svg>