<svg xmlns="http://www.w3.org/2000/svg" width="512" height="512" viewBox="0 0 60 60"><g xmlns="http://www.w3.org/2000/svg" id="Page-1" stroke="none" stroke-width="1" fill="none" fill-rule="evenodd"><g id="035---Creative-Thinking" transform="translate(0 -1)" fill-rule="nonzero"><path d="M55.79 27.57c-.133.28-.263.58-.39.9l-4.69 11.32-1.51-2.17L45.28 32l2.73-6.6c.12-.3.24-.59.34-.86l5.37 2.19 2.07.84z" id="Shape" fill="#7facfa" data-original="#7facfa"/><path d="M53.72 26.73c-.11.23-.21.48-.32.74l-4.2 10.15L45.28 32l2.73-6.6c.12-.3.24-.59.34-.86l5.37 2.19z" id="Shape" fill="#a4c2f7" data-original="#a4c2f7"/><path d="M40.72 24.09c-.1 2-.31 4-.61 6l-6.98 1.13c-.01-.11-.01-.21-.02-.32-.12-2.384-.07-4.773.15-7.15 0-.04.01-.08.01-.12v-.01l7.45.47z" id="Shape" fill="#7facfa" data-original="#7facfa"/><path d="M38.72 24.09c-.1 2-.31 4-.61 6l-5 .81c-.12-2.384-.07-4.773.15-7.15l5.46.34z" id="Shape" fill="#a4c2f7" data-original="#a4c2f7"/><path d="M21.75 20.31c-.196.05-.4.06-.6.03-2.7-.31-5.15-6.66-5.15-6.66l.19-5.12c.44.16.67-.72.93-1.62.23-.8.48-1.63.92-1.73.94-.22 2.7 2.78 3.31 2.14l2.44 4.5s.88 7.78-2.04 8.46z" id="Shape" fill="#cad9fc" data-original="#cad9fc"/><path d="M21.15 20.34c-2.7-.31-5.15-6.66-5.15-6.66l.19-5.12c.44.16.67-.72.93-1.62.87.77 1.85 2.07 2.27 1.63l2.44 4.5s.56 4.91-.68 7.27z" id="Shape" fill="#e8edfc" data-original="#e8edfc"/><path d="M29.05 34.34L27 41l-.56-.48-1.81-1.57-3.4-2.95-4.74-20.22-.49-2.1a5.075 5.075 0 002.16 1.81 3.859 3.859 0 002.42.19 4.22 4.22 0 001.02-.38 4.709 4.709 0 002.19-3.45l5.26 22.49z" id="Shape" fill="#7facfa" data-original="#7facfa"/><path d="M26.05 34.34l-1.42 4.61-3.4-2.95-4.74-20.22a3.818 3.818 0 001.67-.29 3.859 3.859 0 002.42.19 4.22 4.22 0 001.02-.38l4.45 19.04z" id="Shape" fill="#a4c2f7" data-original="#a4c2f7"/><path d="M17.08 36.57L17 49l-2.99-1.11-4.9-1.81-7.98-19.25a1 1 0 01.54-1.31l5.99-2.48 2.33-.96a1.008 1.008 0 011.31.54l.76 1.85.38.92.38.92.77 1.85.38.92.39.93.76 1.85.38.92.38.92 1.16 2.78.04.09z" id="Shape" fill="#cad9fc" data-original="#cad9fc"/><path d="M14.08 37.57l-.07 10.32-4.9-1.81-7.98-19.25a1 1 0 01.54-1.31l5.99-2.48a1.1 1.1 0 01.64.58l.76 1.85.38.92.38.92.77 1.85.38.92.39.93.76 1.85.38.92.38.92 1.16 2.78.04.09z" id="Shape" fill="#e8edfc" data-original="#e8edfc"/><path d="M59 53a7 7 0 01-7 7H8a7 7 0 01-1.49-13.84h.01c.16-.042.325-.069.49-.08.327-.057.658-.084.99-.08a6.908 6.908 0 012 .29A10.5 10.5 0 0120.5 36c1.34-.002 2.668.256 3.91.76.851.341 1.655.791 2.39 1.34a12.512 12.512 0 0110.23-8.01c.488-.06.979-.09 1.47-.09a12.514 12.514 0 0111.96 16.15c-.01.01-.01.01-.01.02.02 0 .03-.01.05-.01A7.41 7.41 0 0152 46a7 7 0 017 7z" id="Shape" fill="#cad9fc" data-original="#cad9fc"/><path d="M56 53a7 7 0 01-7 7H8a7 7 0 01-1.49-13.84h.01c.16.04.32.08.48.13-.002-.07.002-.14.01-.21.327-.057.658-.084.99-.08a6.908 6.908 0 012 .29 10.5 10.5 0 018.99-10.18c1.79.25 3.419-.19 4.8.84.17-.46.381.24.621-.19.851.341 1.654.791 2.389 1.34a12.512 12.512 0 0110.23-8.01c6.263.78 10.965 6.1 10.97 12.41a12.348 12.348 0 01-.55 3.67 7.217 7.217 0 013.01-.02A7 7 0 0156 53z" id="Shape" fill="#e8edfc" data-original="#e8edfc"/><path d="M21.35 7.35a5.069 5.069 0 01-2.37 1.52 5.075 5.075 0 01-2.79-.31l.19-5.28c.02-.588.429-1.09 1-1.23.095-.02.193-.03.29-.03.484-.001.93.264 1.16.69l2.52 4.64z" id="Shape" fill="#7facfa" data-original="#7facfa"/><path d="M40.72 24.09a19.71 19.71 0 01-2.76.04c-1.68-.07-3.22-.32-4.69-.51.15-1.59.36-3.16.61-4.73.01-.04.01-.08.02-.12 2.25.14 4.52.28 6.83.42a44.5 44.5 0 01-.01 4.9z" id="Shape" fill="#cad9fc" data-original="#cad9fc"/><path d="M38.72 24.09c-.26.02-.51.04-.76.04-1.68-.07-3.22-.32-4.69-.51.15-1.59.36-3.16.61-4.73 1.6.1 3.21.2 4.85.3a44.5 44.5 0 01-.01 4.9z" id="Shape" fill="#e8edfc" data-original="#e8edfc"/><path d="M40.68 19.19l-2.86-.18-3.92-.24s-4.02-3.65-.37-7.67c2.21-2.43 3.45-4.31 3.92-5.98a5.51 5.51 0 00.24-1.81.491.491 0 01.84-.37c2.46 2.41 8.02 9.14 2.15 16.25z" id="Shape" fill="#cad9fc" data-original="#cad9fc"/><path d="M37.82 19.01l-3.92-.24s-4.02-3.65-.37-7.67c2.21-2.43 3.45-4.31 3.92-5.98 2.41 3.18 4.76 8.41.37 13.89z" id="Shape" fill="#e8edfc" data-original="#e8edfc"/><path d="M58.94 22.11a.524.524 0 01-.12.45 17.876 17.876 0 00-3.03 5.01 3.458 3.458 0 01-1.18.57c-.836.231-1.72.22-2.55-.03-.25-.06-.494-.14-.73-.24-.01 0-.01-.01-.02-.01a4.9 4.9 0 01-2.53-2.14 3.538 3.538 0 01-.43-1.18 18.318 18.318 0 001.41-5.73.494.494 0 01.24-.4l4.77-2.98.84-.52 1.45-.91.39 1.67 1.49 6.44z" id="Shape" fill="#cad9fc" data-original="#cad9fc"/><path d="M56.32 22.11a.6.6 0 01-.12.45 17.539 17.539 0 00-3.04 5.01 3.33 3.33 0 01-1.1.54c-.25-.06-.494-.14-.73-.24-.01 0-.01-.01-.02-.01a4.9 4.9 0 01-2.53-2.14 3.538 3.538 0 01-.43-1.18 18.318 18.318 0 001.41-5.73.494.494 0 01.24-.4l4.77-2.98.06.24 1.49 6.44z" id="Shape" fill="#e8edfc" data-original="#e8edfc"/><path d="M7.625 60.042h3A7 7 0 019.135 46.2h.01c.16-.042.325-.069.49-.08.327-.057.658-.084.99-.08.41 0-1.254-1.2-.867-1.137l.472-1.863-6.475-16.168a1 1 0 01.54-1.31l5.99-2.48.7-.287-.055-.133a1.008 1.008 0 00-1.31-.54l-2.33.96-5.99 2.48a1 1 0 00-.54 1.31l7.98 19.25.084.031a6.984 6.984 0 00-1.194-.111 5.365 5.365 0 00-.99.08c-.165.011-.33.038-.49.08h-.01a7 7 0 001.49 13.84h-.005zm13.99-23.89c.5-.072 1.005-.109 1.51-.11.262 0 .517.018.773.037l-.043-.037-4.74-20.22-.49-2.1.19-5.12.175-4.865-.535-.985a1.314 1.314 0 00-1.16-.69c-.097 0-.195.01-.29.03-.571.14-.98.642-1 1.23l-.19 5.28-.19 5.12.49 2.1 4.74 20.22.043.037a10.366 10.366 0 00-.773-.037c-.217 0-.434.01-.65.024l.19.456.04.09c.62-.213 1.26-.368 1.91-.46z" id="Shape" fill="#fff" data-original="#ffffff"/><path d="M52 61H8a8 8 0 111.086-15.927A11.569 11.569 0 0120.5 35c2.06-.004 4.084.549 5.856 1.6A13.5 13.5 0 0151.768 45 8 8 0 1152 61zM8 47a6 6 0 100 12h44a6 6 0 100-12c-.449 0-.897.05-1.335.146a1 1 0 01-1.17-1.272 11.5 11.5 0 00-21.759-7.422 1 1 0 01-1.533.45A9.5 9.5 0 0011 46.309a1 1 0 01-1.289.939A5.891 5.891 0 008 47z" id="Shape" fill="#1c73bd" data-original="#428dff"/><path id="Shape" fill="#fff" data-original="#ffffff" d="M2.054 26.447l4.978 12.009 3.002 7.241-1.848.766-3.001-7.241L.206 27.213z"/><path d="M3.045 31.449a1 1 0 00.541-1.307l-1.532-3.695-1.848.766 1.532 3.7a1 1 0 001.307.536zm5.141 15.014l1.848-.766-3.385-8.165A1.001 1.001 0 004.8 38.3l3.386 8.163zM5.117 33.837a1.054 1.054 0 00-.539-.545l-.185-.053a.783.783 0 00-.2-.015.649.649 0 00-.193.014c-.065.015-.13.034-.192.058a1.049 1.049 0 00-.545.54 1.033 1.033 0 00.544 1.312c.123.047.253.07.384.068a.994.994 0 00.927-.612.991.991 0 00-.004-.767h.003z" id="Shape" fill="#1c73bd" data-original="#428dff"/><path d="M17.029 37.533a.926.926 0 01-.862-.556l-.041-.09L10.375 23l-8.323 3.444a1 1 0 11-1.847.766 2 2 0 011.084-2.61l8.319-3.439a2.021 2.021 0 012.61 1.069l5.745 13.87a1.042 1.042 0 01-.507 1.347c-.135.058-.28.087-.427.086z" id="Shape" fill="#1c73bd" data-original="#428dff"/><path d="M7.824 28.3a1 1 0 01-.383-1.924l4.619-1.914a1 1 0 11.766 1.848l-4.619 1.917a1.014 1.014 0 01-.383.073zm3.376 2.933a1 1 0 01-.384-1.924l2.772-1.148a1 1 0 01.765 1.848l-2.771 1.148c-.121.05-.251.076-.382.076zm-.314 4.461a1 1 0 01-.386-1.924l4.62-1.914a1 1 0 01.765 1.848l-4.619 1.914c-.12.05-.25.075-.38.076zM21.229 37a1 1 0 01-.972-.772l-5.23-22.32a1 1 0 011.947-.456l5.23 22.32A1 1 0 0121.229 37zm7.82-1.66a1 1 0 01-.973-.773l-5.26-22.489a1 1 0 111.948-.455l5.259 22.489a1 1 0 01-.974 1.228z" id="Shape" fill="#1c73bd" data-original="#428dff"/><path d="M19.617 16.8a5.651 5.651 0 01-4.469-2.6 1.016 1.016 0 01-.148-.56l.376-10.395a2.309 2.309 0 014.338-1.016l4.954 9.146a1 1 0 01.117.567c-.014.159-.4 3.877-3.978 4.716a5.2 5.2 0 01-1.19.142zm-2.605-3.426a3.32 3.32 0 003.339 1.337 3.317 3.317 0 002.4-2.682l-4.795-8.848a.309.309 0 00-.581.136l-.363 10.057zM53.384 29.3a6.345 6.345 0 01-2.447-.516 5.315 5.315 0 01-3.545-4.231 1 1 0 111.994-.143 3.4 3.4 0 002.314 2.525 3.4 3.4 0 003.435-.159 1 1 0 011.4.127.991.991 0 01-.1 1.393 4.869 4.869 0 01-3.051 1.004z" id="Shape" fill="#1c73bd" data-original="#428dff"/><path d="M18.194 9.956a7 7 0 01-2.345-.456 1 1 0 01.677-1.882 4.11 4.11 0 002.227.278 4.1 4.1 0 001.873-1.239 1 1 0 111.443 1.385 5.962 5.962 0 01-2.859 1.8 4.456 4.456 0 01-1.016.114zM25.56 37.95a1 1 0 01-.973-.772l-2.93-12.5a1 1 0 011.947-.456l2.93 12.5a1 1 0 01-.974 1.228zm-4.069-17.371a1 1 0 01-.973-.772l-.913-3.894a1 1 0 011.948-.456l.912 3.894a1 1 0 01-.974 1.228zM45.279 33a1 1 0 01-.924-1.382l2.731-6.6a1 1 0 111.848.764l-2.73 6.6a1 1 0 01-.925.618zm5.431 7.791a1 1 0 01-.924-1.384l4.691-11.32a1 1 0 111.847.766l-4.69 11.32a1 1 0 01-.924.618z" id="Shape" fill="#1c73bd" data-original="#428dff"/><path d="M55.4 29.465a1 1 0 01-.923-1.383 21.767 21.767 0 013.43-6l-1.115-4.813-1.487 3.581a1 1 0 01-1.848-.766l2.679-6.467a1 1 0 011.9.157l1.878 8.11a1.491 1.491 0 01-.369 1.365 18.769 18.769 0 00-3.222 5.6 1 1 0 01-.923.616z" id="Shape" fill="#1c73bd" data-original="#428dff"/><path d="M48.006 26.4a1 1 0 01-.924-1.383 18.77 18.77 0 001.681-6.233c.013-.503.278-.965.706-1.23l7.061-4.407a1 1 0 011.453 1.232l-2.678 6.471a1 1 0 01-1.848-.766l1.484-3.584-4.192 2.616a21.74 21.74 0 01-1.819 6.671 1 1 0 01-.924.613zm-14.877 5.82a1 1 0 01-1-.936 49.347 49.347 0 01.146-7.748c.145-1.579.353-3.191.635-4.926a.984.984 0 011.049-.838c2.246.14 4.523.28 6.83.418a1 1 0 01.937.944 54.62 54.62 0 01-.626 11.107 1 1 0 11-1.978-.295 54.3 54.3 0 00.654-9.814l-5.024-.307a71.442 71.442 0 00-.478 3.894 47.453 47.453 0 00-.141 7.437 1 1 0 01-.934 1.062l-.07.002z" id="Shape" fill="#1c73bd" data-original="#428dff"/><path d="M40.674 20.188a1 1 0 01-.77-1.637 9.12 9.12 0 002.326-6.908 13.374 13.374 0 00-3.609-7.168c-.32 2.115-1.7 4.368-4.351 7.3a4.26 4.26 0 00.309 6.259 1 1 0 01-1.347 1.479 7.813 7.813 0 01-1.815-2.7 5.852 5.852 0 011.371-6.377c3.8-4.2 4.25-6.238 3.735-8.172a1 1 0 011.585-1.05c.225.177 5.492 4.386 6.111 10.216a11.042 11.042 0 01-2.773 8.4 1 1 0 01-.772.358z" id="Shape" fill="#1c73bd" data-original="#428dff"/><path d="M38.685 16.7a1 1 0 01-.8-1.6 5.555 5.555 0 00.995-4.17 1 1 0 111.932-.515 7.5 7.5 0 01-1.33 5.888 1 1 0 01-.797.397zm-.308 8.384a28.492 28.492 0 01-3.893-.331c-.339-.045-.673-.09-1-.13a1 1 0 11.24-1.986c.338.041.681.087 1.03.134 1.698.293 3.426.372 5.144.235a1 1 0 01.212 1.988c-.576.061-1.154.091-1.733.09zM25.78 54a1 1 0 01-.92-.608A6.072 6.072 0 0124.37 51a6 6 0 0111.43-2.556 1 1 0 01-1.81.852A3.96 3.96 0 0030.37 47a4 4 0 00-4 4c0 .553.112 1.1.33 1.608A1 1 0 0125.78 54z" id="Shape" fill="#1c73bd" data-original="#428dff"/><path d="M41 51.33a1 1 0 01-.91-.585A3 3 0 0037.37 49a2.949 2.949 0 00-1.856.652 1 1 0 01-1.247-1.564A4.926 4.926 0 0137.37 47a5 5 0 014.54 2.915A1 1 0 0141 51.33zM15 46a1 1 0 01-1-1c0-3.678 3.533-4.9 3.684-4.949a1.002 1.002 0 01.638 1.9A3.438 3.438 0 0016 45a1 1 0 01-1 1zm17-7a1 1 0 01-.971-1.243A6.229 6.229 0 0137 33a1 1 0 01.005 2 4.265 4.265 0 00-4.035 3.243A1 1 0 0132 39z" id="Shape" fill="#1c73bd" data-original="#428dff"/></g></g></svg>