<svg xmlns="http://www.w3.org/2000/svg" width="512" height="512" viewBox="0 0 60 60"><g xmlns="http://www.w3.org/2000/svg" id="Page-1" fill="none" fill-rule="evenodd"><g id="086---Desktop-Calendar" fill-rule="nonzero"><rect id="Rectangle-path" fill="#e8edfc" height="54" rx="3" width="52" x="1" y="5" data-original="#e8edfc"/><path id="Shape" d="M50 5h-3a3 3 0 013 3v48a3 3 0 01-3 3h3a3 3 0 003-3V8a3 3 0 00-3-3z" fill="#cad9fc" data-original="#cad9fc"/><path id="Shape" d="M53 56h3.892a2.1 2.1 0 002.086-2.392L53 12z" fill="#a4c2f7" data-original="#a4c2f7"/><path id="Shape" d="M58.978 53.608L53 12v20.879l2.978 20.729A2.1 2.1 0 0153.892 56h3a2.1 2.1 0 002.086-2.392z" fill="#7facfa" data-original="#7facfa"/><path id="Shape" d="M49 11v6H5v-6a2.006 2.006 0 012-2h40a2.006 2.006 0 012 2z" fill="#a4c2f7" data-original="#a4c2f7"/><path id="Shape" d="M47 9h-3a2.006 2.006 0 012 2v6h3v-6a2.006 2.006 0 00-2-2z" fill="#7facfa" data-original="#7facfa"/><path id="Shape" d="M49 17v30.17c0 .533-.213 1.044-.59 1.42l-5.82 5.82c-.376.377-.887.59-1.42.59H7a2.006 2.006 0 01-2-2V17z" fill="#e8edfc" data-original="#e8edfc"/><path id="Shape" d="M46 17v30.17c0 .533-.213 1.044-.59 1.42l-5.82 5.82c-.376.377-.887.59-1.42.59h3c.533 0 1.044-.213 1.42-.59l5.82-5.82c.377-.376.59-.887.59-1.42V17z" fill="#cad9fc" data-original="#cad9fc"/><path id="Shape" d="M48.82 48c-.1.22-.24.42-.41.59l-5.82 5.82c-.17.17-.37.31-.59.41V50a2.006 2.006 0 012-2z" fill="#cad9fc" data-original="#cad9fc"/><path id="Shape" d="M7 59a3 3 0 01-3-3V8a3 3 0 013-3H4a3 3 0 00-3 3v48a3 3 0 003 3z" fill="#fff" data-original="#ffffff"/><path id="Rectangle-path" d="M0 48h2v8H0z" fill="#fff" data-original="#ffffff"/><g fill="#1c73bd"><path id="Shape" d="M1.02 53a1 1 0 01-.01-2h.01a1 1 0 010 2z" data-original="#428dff"/><path id="Shape" d="M54 11.925V8a4 4 0 00-4-4h-6.695a6.977 6.977 0 00-12.62 0h-6.38a6.977 6.977 0 00-12.62 0H4a4 4 0 00-4 4v40a1 1 0 002 0V8a2 2 0 012-2h7.08A7.12 7.12 0 0011 7c.003.335.03.669.08 1H7a3 3 0 00-3 3v42a3 3 0 003 3h34.172a2.978 2.978 0 002.121-.879l5.828-5.828c.564-.561.88-1.325.879-2.121V11a3 3 0 00-3-3H32.1a5 5 0 010-2H50a2 2 0 012 2v48a2 2 0 01-2 2H4a2 2 0 01-2-2 1 1 0 00-2 0 4 4 0 004 4h46a4 4 0 003.858-3h3.035a3.1 3.1 0 003.076-3.534zM18 2c1.574 0 3.055.742 4 2h-7.974A4.977 4.977 0 0118 2zM6 53V18h42v29h-4a3 3 0 00-3 3v4H7a1 1 0 01-1-1zm37-.414V50a1 1 0 011-1h2.586zM47 10a1 1 0 011 1v5H6v-5a1 1 0 011-1h4.685A7 7 0 0018 14a1 1 0 000-2 4.977 4.977 0 01-3.974-2h16.659A7 7 0 0037 14a1 1 0 000-2 4.977 4.977 0 01-3.974-2zM30.08 8H13.1a5 5 0 010-2h16.98A7.12 7.12 0 0030 7c.003.335.03.669.08 1zM37 2c1.574 0 3.055.742 4 2h-7.974A4.977 4.977 0 0137 2zm20.733 52.617c-.21.245-.517.386-.84.383H54V25.994l3.988 27.757c.047.312-.046.63-.255.866z" data-original="#428dff"/><path id="Shape" d="M19 44a6.006 6.006 0 006-6v-8a6 6 0 00-12 0v8a6.006 6.006 0 006 6zm-4-14a4 4 0 118 0v8a4 4 0 11-8 0zm15 12a1 1 0 000 2h8a1 1 0 000-2h-3V25a1 1 0 00-1.707-.707l-4 4a1 1 0 001.414 1.414L33 27.414V42zm8 5H15a1 1 0 000 2h23a1 1 0 000-2z" data-original="#428dff"/></g></g></g></svg>