<?xml version="1.0"?>
<svg xmlns="http://www.w3.org/2000/svg" xmlns:xlink="http://www.w3.org/1999/xlink" xmlns:svgjs="http://svgjs.com/svgjs" version="1.1" width="512" height="512" x="0" y="0" viewBox="0 0 60 60" style="enable-background:new 0 0 512 512" xml:space="preserve" class=""><g><path xmlns="http://www.w3.org/2000/svg" d="m59 46a13 13 0 1 1 -26 0v-.11a13 13 0 0 1 26 .11z" fill="#e8edfc" data-original="#e8edfc"/><path xmlns="http://www.w3.org/2000/svg" d="m46 33a13.228 13.228 0 0 0 -1.5.093 12.993 12.993 0 0 1 .006 25.813 13.136 13.136 0 0 0 1.494.094 13 13 0 0 0 0-26z" fill="#cad9fc" data-original="#cad9fc"/><path xmlns="http://www.w3.org/2000/svg" d="m48.72 20.66-8.11 8.06a.942.942 0 0 1 -1.61-.66v-4.06a10 10 0 0 0 -10 10v7.94a8.981 8.981 0 0 0 -8 0v-7.94a10 10 0 0 0 -10-10v4.06a.942.942 0 0 1 -1.61.66l-8.11-8.06a.924.924 0 0 1 0-1.32l8.11-8.06a.942.942 0 0 1 1.61.66v4.06c4 0 6.5 1 8 2a5.988 5.988 0 0 1 2 2v-9h-4.06a.942.942 0 0 1 -.66-1.61l8.06-8.11a.924.924 0 0 1 1.32 0l8.06 8.11a.942.942 0 0 1 -.66 1.61h-4.06v9s2-4 10-4v-4.06a.942.942 0 0 1 1.61-.66l8.11 8.06a.924.924 0 0 1 0 1.32z" fill="#c6d8fb" data-original="#c6d8fb" class=""/><path xmlns="http://www.w3.org/2000/svg" d="m48.72 19.34-8.11-8.06a.942.942 0 0 0 -1.61.66v.721l6.72 6.679a.924.924 0 0 1 0 1.32l-6.72 6.679v.721a.942.942 0 0 0 1.61.66l8.11-8.06a.924.924 0 0 0 0-1.32z" fill="#a4c3fd" data-original="#a4c3fd"/><path xmlns="http://www.w3.org/2000/svg" d="m36 24a10 10 0 0 0 -10 10v7.059a8.9 8.9 0 0 1 3 .881v-7.94a10.009 10.009 0 0 1 7-9.54z" fill="#a4c3fd" data-original="#a4c3fd"/><path xmlns="http://www.w3.org/2000/svg" d="m33.95 50.89a9 9 0 1 1 -4.95-8.95 9.09 9.09 0 0 1 4 3.95v.11a13.026 13.026 0 0 0 .95 4.89z" fill="#e8edfc" data-original="#e8edfc"/><path xmlns="http://www.w3.org/2000/svg" d="m33 46v-.11a9.09 9.09 0 0 0 -4-3.95 8.925 8.925 0 0 0 -4-.94 9.051 9.051 0 0 0 -1.5.14 8.916 8.916 0 0 1 2.5.8 9.09 9.09 0 0 1 4 3.95v.11a13.026 13.026 0 0 0 .95 4.89 8.99 8.99 0 0 1 -7.44 7.977 8.942 8.942 0 0 0 10.44-7.977 13.026 13.026 0 0 1 -.95-4.89z" fill="#cad9fc" data-original="#cad9fc"/><g xmlns="http://www.w3.org/2000/svg" fill="#fff"><path d="m26.51 58.867a8.992 8.992 0 0 1 -2.51-16.927v-7.94a10 10 0 0 0 -10-10v.46a10.007 10.007 0 0 1 7 9.54v7.94a9 9 0 0 0 5.51 16.927z" fill="#ffffff" data-original="#ffffff"/><path d="m1.28 20.66 8.11 8.06a.942.942 0 0 0 1.61-.66v-.721l-6.72-6.679a.924.924 0 0 1 0-1.32l6.72-6.679v-.721a.942.942 0 0 0 -1.61-.66l-8.11 8.06a.924.924 0 0 0 0 1.32z" fill="#ffffff" data-original="#ffffff"/><path d="m19.997 33.946 2-.012.003 8.006h-2z" fill="#ffffff" data-original="#ffffff"/></g><path xmlns="http://www.w3.org/2000/svg" d="m46 32a14.022 14.022 0 0 0 -13.709 11.159 9.937 9.937 0 0 0 -2.291-1.808v-7.351a9.007 9.007 0 0 1 8-8.946v3.006a1.942 1.942 0 0 0 3.315 1.368l8.1-8.052a1.924 1.924 0 0 0 .008-2.746l-8.11-8.059a1.942 1.942 0 0 0 -3.313 1.367v3.081a13.934 13.934 0 0 0 -8 2.467v-5.486h3.061a1.942 1.942 0 0 0 1.369-3.317l-8.053-8.103a1.976 1.976 0 0 0 -2.746-.008l-8.06 8.11a1.942 1.942 0 0 0 1.368 3.318h3.061v5.485c-.14-.105-.288-.211-.446-.316a14.525 14.525 0 0 0 -7.554-2.15v-3.081a1.942 1.942 0 0 0 -3.315-1.369l-8.1 8.052a1.924 1.924 0 0 0 -.009 2.747l8.109 8.057a1.942 1.942 0 0 0 3.315-1.365v-3a9 9 0 0 1 8 8.887 1.006 1.006 0 0 0 1 .994.994.994 0 0 0 1-1.006 11 11 0 0 0 -11-10.935 1 1 0 0 0 -1 1v3.918l-8.018-7.87 8.018-7.966v3.918a1 1 0 0 0 1 1c3.884 0 6.192 1 7.445 1.833a5.259 5.259 0 0 1 1.661 1.615 1 1 0 0 0 1.894-.448v-9a1 1 0 0 0 -1-1h-3.919l7.87-8.016 7.966 8.016h-3.917a1 1 0 0 0 -1 1v9a1 1 0 0 0 .761.965 1.016 1.016 0 0 0 1.128-.507c.075-.142 1.925-3.458 9.111-3.458a1 1 0 0 0 1-1v-3.92l8.017 7.87-8.017 7.965v-3.915a1 1 0 0 0 -1-1 11.006 11.006 0 0 0 -11 11v6.473a9.993 9.993 0 1 0 6.3 13.2 14 14 0 1 0 11.7-21.673zm-21 26a8 8 0 1 1 7.009-11.821 13.906 13.906 0 0 0 .92 4.794 7.95 7.95 0 0 1 -7.929 7.027zm21 0a12 12 0 1 1 12-12 12.013 12.013 0 0 1 -12 12z" fill="#1c73bd" data-original="#428dff" class=""/><path xmlns="http://www.w3.org/2000/svg" d="m50.219 40.375-7.3 9.128-1.21-1.21a1 1 0 0 0 -1.414 1.414l2 2a.993.993 0 0 0 .705.293h.056a1 1 0 0 0 .725-.373l8-10a1 1 0 1 0 -1.562-1.25z" fill="#1c73bd" data-original="#428dff" class=""/><path xmlns="http://www.w3.org/2000/svg" d="m21.02 38.94a1 1 0 0 1 -.01-2h.01a1 1 0 0 1 0 2z" fill="#1c73bd" data-original="#428dff" class=""/></g></svg>
