<svg id="Layer_1" height="512" width="512" xmlns="http://www.w3.org/2000/svg"><path d="M488.511 88.105V65.317H504.5a7.5 7.5 0 007.5-7.5V27.528a7.5 7.5 0 00-7.5-7.5H278.736V7.5a7.5 7.5 0 00-7.5-7.5h-30.234a7.5 7.5 0 00-7.5 7.5v12.528H80.417c-4.142 0-7.5 3.357-7.5 7.5s3.358 7.5 7.5 7.5h153.084v15.289H15.237V35.028h29.887c4.142 0 7.5-3.357 7.5-7.5s-3.358-7.5-7.5-7.5H7.737a7.5 7.5 0 00-7.5 7.5v30.289a7.5 7.5 0 007.5 7.5h15.989v22.788a7.5 7.5 0 007.5 7.5h112.442v47.573a7.5 7.5 0 007.5 7.5h42.696v82.611a7.5 7.5 0 007.5 7.5h14.384l13.384 44.364a7.5 7.5 0 007.18 5.334h12.297l-.193 155.493-33.084-58.096a7.501 7.501 0 00-13.035 7.422l38.165 67.019-114.381-30.804a7.501 7.501 0 00-3.9 14.484l77.009 20.739H22.6c-12.461 0-22.6 10.15-22.6 22.627S10.138 512 22.6 512h357.407c4.142 0 7.5-3.357 7.5-7.5s-3.358-7.5-7.5-7.5H22.6c-4.19 0-7.6-3.422-7.6-7.627s3.409-7.627 7.6-7.627h466.564c4.19 0 7.6 3.422 7.6 7.627s-3.409 7.627-7.6 7.627h-73.915c-4.142 0-7.5 3.357-7.5 7.5s3.358 7.5 7.5 7.5h73.915c12.461 0 22.6-10.15 22.6-22.627s-10.138-22.627-22.6-22.627H312.572l77.009-20.739c4-1.077 6.369-5.193 5.292-9.192s-5.19-6.371-9.192-5.292L271.3 462.326l38.165-67.019a7.502 7.502 0 00-2.806-10.229 7.502 7.502 0 00-10.229 2.807l-33.013 57.972.192-155.37h12.316a7.499 7.499 0 007.18-5.334l13.384-44.364h14.384a7.5 7.5 0 007.5-7.5v-82.611h42.695a7.5 7.5 0 007.5-7.5V95.605h112.443a7.5 7.5 0 007.5-7.5zM248.501 15h15.234v65.605h-15.234zM38.726 80.605V65.317h194.775v15.288zm231.628 194.883h-28.471l-10.468-34.698h49.406zm33.019-49.698h-94.509v-75.111h94.509zm50.195-90.111h-194.9V95.605h194.9zm119.943-55.074H278.736V65.317h115.317c4.142 0 7.5-3.357 7.5-7.5s-3.358-7.5-7.5-7.5H278.736V35.028H497v15.289h-67.832c-4.142 0-7.5 3.357-7.5 7.5s3.358 7.5 7.5 7.5h44.343z"/><path d="M179.22 427.994a7.466 7.466 0 004.393 1.427 7.5 7.5 0 004.405-13.576l-72.262-52.326a7.5 7.5 0 10-8.798 12.149zm-87.27 9.871c.653.176 1.309.26 1.955.26a7.504 7.504 0 007.238-5.552 7.5 7.5 0 00-5.292-9.192l-19.013-5.12c-4.001-1.077-8.115 1.292-9.192 5.292s1.292 8.115 5.292 9.192zm304.058-74.345l-73.033 52.885a7.5 7.5 0 004.405 13.576 7.468 7.468 0 004.393-1.427l73.033-52.885a7.5 7.5 0 10-8.798-12.149zm38.918 54.741l-19.013 5.12a7.5 7.5 0 00-5.292 9.192 7.503 7.503 0 007.238 5.552c.645 0 1.302-.084 1.955-.26l19.013-5.12a7.5 7.5 0 00-3.901-14.484zM231.028 195.734h49.708c4.142 0 7.5-3.357 7.5-7.5s-3.358-7.5-7.5-7.5h-49.708c-4.142 0-7.5 3.357-7.5 7.5s3.358 7.5 7.5 7.5z"/></svg>