<svg id="Capa_1" height="512" width="512" xmlns="http://www.w3.org/2000/svg"><path d="M504.5 299.469h-5c-4.143 0-7.5 3.358-7.5 7.5s3.357 7.5 7.5 7.5h5c4.143 0 7.5-3.358 7.5-7.5s-3.357-7.5-7.5-7.5zm-104.388 0c-4.143 0-7.5 3.358-7.5 7.5s3.357 7.5 7.5 7.5h9.938c4.143 0 7.5-3.358 7.5-7.5s-3.357-7.5-7.5-7.5zm-347.857 15h9.939c4.143 0 7.5-3.358 7.5-7.5s-3.357-7.5-7.5-7.5h-9.939c-4.143 0-7.5 3.358-7.5 7.5s3.357 7.5 7.5 7.5zm298.164-15c-4.143 0-7.5 3.358-7.5 7.5s3.357 7.5 7.5 7.5h9.938c4.143 0 7.5-3.358 7.5-7.5s-3.357-7.5-7.5-7.5zm-248.47 15h9.938c4.143 0 7.5-3.358 7.5-7.5s-3.357-7.5-7.5-7.5h-9.938a7.5 7.5 0 000 15zm99.388-15c-4.143 0-7.5 3.358-7.5 7.5s3.357 7.5 7.5 7.5h9.938c4.143 0 7.5-3.358 7.5-7.5s-3.357-7.5-7.5-7.5zm99.388 0c-4.143 0-7.5 3.358-7.5 7.5s3.357 7.5 7.5 7.5h9.938c4.143 0 7.5-3.358 7.5-7.5s-3.357-7.5-7.5-7.5zm-49.694 0c-4.143 0-7.5 3.358-7.5 7.5s3.357 7.5 7.5 7.5h9.938c4.143 0 7.5-3.358 7.5-7.5s-3.357-7.5-7.5-7.5zm-238.531 0h-5c-4.143 0-7.5 3.358-7.5 7.5s3.357 7.5 7.5 7.5h5c4.143 0 7.5-3.358 7.5-7.5s-3.357-7.5-7.5-7.5z"/><path d="M462.15 299.469c-.455-.061-12.344 0-12.344 0-4.143 0-7.5 3.358-7.5 7.5s3.357 7.5 7.5 7.5h4.844v153.658c0 6.411-5.216 11.626-11.627 11.626H68.977c-6.411 0-11.627-5.215-11.627-11.626V342.723c0-4.142-3.357-7.5-7.5-7.5s-7.5 3.358-7.5 7.5v125.403c0 14.682 11.944 26.626 26.627 26.626h374.047c14.683 0 26.627-11.944 26.627-26.626V306.969a7.501 7.501 0 00-7.501-7.5zm-309.361 0c-3.645-.442-8.359 2.432-8.646 7.5a7.5 7.5 0 007.5 7.5h9.939c2.182.019 3.803.029 6.662-2.191l44.674-44.674c10.266 6.486 26.943 5.47 36.511-4.514L419.886 92.633c11.202-10.748 12.315-31.55 0-43.446L396.93 26.231c-11.979-11.979-31.469-11.979-43.447 0L145 234.714a21.715 21.715 0 00-5.414 21.782zm86.032-46.985c-4.88 4.94-14.784 6.297-21.063 0l-6.759-6.759 56.748-56.748a7.5 7.5 0 00-10.607-10.606l-56.748 56.748-17.291-17.291 125.34-125.34 45.189 45.189zM364.09 36.838c5.15-5.214 15.605-6.646 22.232 0l22.956 22.956c5.214 5.151 6.646 15.604 0 22.233l-45.042 45.042-45.189-45.189zM155.607 245.32l16.886-16.886 29.191 29.191-35.235 35.235-12.525-40.769a6.752 6.752 0 011.683-6.771z"/><path d="M310.371 135.745a7.5 7.5 0 00-10.607 0l-17.559 17.559a7.5 7.5 0 005.304 12.803 7.478 7.478 0 005.304-2.197l17.559-17.559a7.5 7.5 0 00-.001-10.606z"/><circle cx="369.721" cy="76.395" r="7.338"/></svg>