<svg height="512" viewBox="0 0 128 128" width="512" xmlns="http://www.w3.org/2000/svg"><path d="M64.617 56.178H37.3a4.746 4.746 0 00-4.741 4.74v10.653a4.747 4.747 0 004.741 4.741h27.317a4.746 4.746 0 004.74-4.741V60.918a4.746 4.746 0 00-4.74-4.74zm-13.7 16.634l-5.159-13.134H51l5.164 13.134zm-14.862-1.241V60.918a1.242 1.242 0 011.241-1.24H42l5.164 13.134H37.3a1.243 1.243 0 01-1.245-1.241zm29.8 0a1.242 1.242 0 01-1.24 1.241h-4.7l-5.157-13.134h9.859a1.241 1.241 0 011.24 1.24zm40.198-17.223h-2.22V34.61A10.735 10.735 0 0093.11 23.887h-1.391v-2.215a1.749 1.749 0 00-2.02-1.729l-8.382 1.312a1.752 1.752 0 00-1.48 1.729v4.673a1.75 1.75 0 001.48 1.729L89.7 30.7a1.749 1.749 0 002.02-1.729v-1.584h1.39a7.231 7.231 0 017.223 7.223v10.925h-3.417v-1.951a1.75 1.75 0 00-3.5 0v7.4a1.75 1.75 0 103.5 0v-1.95h3.417v5.313h-2.22a4.7 4.7 0 00-4.7 4.7v33.97a4.7 4.7 0 002.908 4.339V109a1.75 1.75 0 001.75 1.75h8.018a1.75 1.75 0 001.75-1.75V97.356a4.7 4.7 0 002.908-4.339V59.045a4.7 4.7 0 00-4.694-4.697zM88.219 26.924l-4.882-.764v-1.679l4.882-.764zm8.7 32.121a1.2 1.2 0 011.2-1.2h7.94a1.2 1.2 0 011.2 1.2v33.972a1.2 1.2 0 01-1.2 1.2h-7.94a1.2 1.2 0 01-1.2-1.2zm7.426 48.205h-4.521v-9.536h4.518zM52.346 26.92l13.648 6.064a1.535 1.535 0 00.221.081 8.122 8.122 0 002.278.328 8.069 8.069 0 10-2.278-15.817 1.535 1.535 0 00-.221.081l-13.648 6.065a1.749 1.749 0 000 3.2zM67.3 20.907a4.567 4.567 0 110 8.827l-9.932-4.413z"/><path d="M79.413 59.609h-2.1V54.45a12.5 12.5 0 00-12.49-12.492H37.1A12.505 12.505 0 0024.605 54.45v5.159H22.5a5.256 5.256 0 00-5.25 5.249v2.773a5.256 5.256 0 005.25 5.25h2.105V84.4a26.355 26.355 0 1052.709 0V72.881h2.1a5.256 5.256 0 005.25-5.25v-2.773a5.256 5.256 0 00-5.251-5.249zM24.6 69.381h-2.1a1.752 1.752 0 01-1.75-1.75v-2.773a1.752 1.752 0 011.75-1.749h2.1zM73.814 84.4a22.855 22.855 0 11-45.709 0V54.45a9 9 0 018.995-8.992h27.723a9 9 0 018.991 8.992zm7.349-16.764a1.753 1.753 0 01-1.75 1.75h-2.1v-6.277h2.1a1.752 1.752 0 011.75 1.749z"/></svg>