<svg id="Layer_1" enable-background="new 0 0 512 512" height="512" viewBox="0 0 512 512" width="512" xmlns="http://www.w3.org/2000/svg"><g><path d="m488.511 88.105v-22.788h15.989c4.142 0 7.5-3.357 7.5-7.5v-30.289c0-4.143-3.358-7.5-7.5-7.5h-225.764v-12.528c0-4.143-3.358-7.5-7.5-7.5h-30.234c-4.142 0-7.5 3.357-7.5 7.5v12.528h-153.085c-4.142 0-7.5 3.357-7.5 7.5s3.358 7.5 7.5 7.5h153.084v15.289h-218.264v-15.289h29.887c4.142 0 7.5-3.357 7.5-7.5s-3.358-7.5-7.5-7.5h-37.387c-4.142 0-7.5 3.357-7.5 7.5v30.289c0 4.143 3.358 7.5 7.5 7.5h15.989v22.788c0 4.143 3.358 7.5 7.5 7.5h112.442v47.573c0 4.143 3.358 7.5 7.5 7.5h42.696v82.611c0 4.143 3.358 7.5 7.5 7.5h14.384l13.384 44.364c.955 3.167 3.873 5.334 7.18 5.334h12.297l-.193 155.493-33.084-58.096c-2.049-3.6-6.628-4.855-10.229-2.807-3.6 2.05-4.855 6.63-2.806 10.229l38.165 67.019-114.381-30.804c-4-1.075-8.115 1.292-9.192 5.292-1.077 3.999 1.292 8.115 5.292 9.192l77.009 20.739h-176.59c-12.461 0-22.6 10.15-22.6 22.627s10.138 22.629 22.6 22.629h357.407c4.142 0 7.5-3.357 7.5-7.5s-3.358-7.5-7.5-7.5h-357.407c-4.19 0-7.6-3.422-7.6-7.627s3.409-7.627 7.6-7.627h466.564c4.19 0 7.6 3.422 7.6 7.627s-3.409 7.627-7.6 7.627h-73.915c-4.142 0-7.5 3.357-7.5 7.5s3.358 7.5 7.5 7.5h73.915c12.461 0 22.6-10.15 22.6-22.627s-10.138-22.627-22.6-22.627h-176.592l77.009-20.739c4-1.077 6.369-5.193 5.292-9.192s-5.19-6.371-9.192-5.292l-114.381 30.803 38.165-67.019c2.049-3.599.793-8.179-2.806-10.229-3.598-2.048-8.179-.793-10.229 2.807l-33.013 57.972.192-155.37h12.316c3.308 0 6.225-2.167 7.18-5.334l13.384-44.364h14.384c4.142 0 7.5-3.357 7.5-7.5v-82.611h42.695c4.142 0 7.5-3.357 7.5-7.5v-47.573h112.443c4.142 0 7.5-3.357 7.5-7.5zm-240.01-73.105h15.234v65.605h-15.234zm-209.775 65.605v-15.288h194.775v15.288zm231.628 194.883h-28.471l-10.468-34.698h49.406zm33.019-49.698h-94.509v-75.111h94.509zm50.195-90.111h-194.9v-40.074h194.9zm119.943-55.074h-194.775v-15.288h115.317c4.142 0 7.5-3.357 7.5-7.5s-3.358-7.5-7.5-7.5h-115.317v-15.289h218.264v15.289h-67.832c-4.142 0-7.5 3.357-7.5 7.5s3.358 7.5 7.5 7.5h44.343z"/><path d="m179.22 427.994c1.33.963 2.868 1.427 4.393 1.427 2.323 0 4.614-1.077 6.081-3.103 2.429-3.354 1.679-8.044-1.676-10.473l-72.262-52.326c-3.356-2.43-8.044-1.679-10.474 1.676s-1.679 8.044 1.676 10.473z"/><path d="m91.95 437.865c.653.176 1.309.26 1.955.26 3.308 0 6.336-2.205 7.238-5.552 1.077-4-1.292-8.115-5.292-9.192l-19.013-5.12c-4.001-1.077-8.115 1.292-9.192 5.292s1.292 8.115 5.292 9.192z"/><path d="m396.008 363.52-73.033 52.885c-3.355 2.429-4.105 7.118-1.676 10.473 1.467 2.026 3.757 3.103 6.081 3.103 1.524 0 3.063-.464 4.393-1.427l73.033-52.885c3.355-2.429 4.105-7.118 1.676-10.473-2.429-3.356-7.118-4.106-10.474-1.676z"/><path d="m434.926 418.261-19.013 5.12c-4 1.077-6.369 5.192-5.292 9.192.901 3.347 3.93 5.552 7.238 5.552.645 0 1.302-.084 1.955-.26l19.013-5.12c4-1.077 6.369-5.192 5.292-9.192-1.077-3.999-5.192-6.369-9.193-5.292z"/><path d="m231.028 195.734h49.708c4.142 0 7.5-3.357 7.5-7.5s-3.358-7.5-7.5-7.5h-49.708c-4.142 0-7.5 3.357-7.5 7.5s3.358 7.5 7.5 7.5z"/></g></svg>