<svg id="Capa_1" enable-background="new 0 0 512 512" height="512" viewBox="0 0 512 512" width="512" xmlns="http://www.w3.org/2000/svg"><g><path d="m504.5 299.469h-5c-4.143 0-7.5 3.358-7.5 7.5s3.357 7.5 7.5 7.5h5c4.143 0 7.5-3.358 7.5-7.5s-3.357-7.5-7.5-7.5z"/><path d="m400.112 299.469c-4.143 0-7.5 3.358-7.5 7.5s3.357 7.5 7.5 7.5h9.938c4.143 0 7.5-3.358 7.5-7.5s-3.357-7.5-7.5-7.5z"/><path d="m52.255 314.469h9.939c4.143 0 7.5-3.358 7.5-7.5s-3.357-7.5-7.5-7.5h-9.939c-4.143 0-7.5 3.358-7.5 7.5s3.357 7.5 7.5 7.5z"/><path d="m350.419 299.469c-4.143 0-7.5 3.358-7.5 7.5s3.357 7.5 7.5 7.5h9.938c4.143 0 7.5-3.358 7.5-7.5s-3.357-7.5-7.5-7.5z"/><path d="m101.949 314.469h9.938c4.143 0 7.5-3.358 7.5-7.5s-3.357-7.5-7.5-7.5h-9.938c-4.143 0-7.5 3.358-7.5 7.5s3.358 7.5 7.5 7.5z"/><path d="m201.337 299.469c-4.143 0-7.5 3.358-7.5 7.5s3.357 7.5 7.5 7.5h9.938c4.143 0 7.5-3.358 7.5-7.5s-3.357-7.5-7.5-7.5z"/><path d="m300.725 299.469c-4.143 0-7.5 3.358-7.5 7.5s3.357 7.5 7.5 7.5h9.938c4.143 0 7.5-3.358 7.5-7.5s-3.357-7.5-7.5-7.5z"/><path d="m251.031 299.469c-4.143 0-7.5 3.358-7.5 7.5s3.357 7.5 7.5 7.5h9.938c4.143 0 7.5-3.358 7.5-7.5s-3.357-7.5-7.5-7.5z"/><path d="m12.5 299.469h-5c-4.143 0-7.5 3.358-7.5 7.5s3.357 7.5 7.5 7.5h5c4.143 0 7.5-3.358 7.5-7.5s-3.357-7.5-7.5-7.5z"/><path d="m462.15 299.469c-.455-.061-12.344 0-12.344 0-4.143 0-7.5 3.358-7.5 7.5s3.357 7.5 7.5 7.5h4.844v153.658c0 6.411-5.216 11.626-11.627 11.626h-374.046c-6.411 0-11.627-5.215-11.627-11.626v-125.404c0-4.142-3.357-7.5-7.5-7.5s-7.5 3.358-7.5 7.5v125.403c0 14.682 11.944 26.626 26.627 26.626h374.047c14.683 0 26.627-11.944 26.627-26.626v-161.157c-.001-4.142-3.358-7.5-7.501-7.5z"/><path d="m152.789 299.469c-3.645-.442-8.359 2.432-8.646 7.5 0 4.142 3.357 7.5 7.5 7.5h9.939c2.182.019 3.803.029 6.662-2.191l44.674-44.674c10.266 6.486 26.943 5.47 36.511-4.514l170.457-170.457c11.202-10.748 12.315-31.55 0-43.446l-22.956-22.956c-11.979-11.979-31.469-11.979-43.447 0l-208.483 208.483c-5.713 5.714-7.788 14.061-5.414 21.782zm86.032-46.985c-4.88 4.94-14.784 6.297-21.063 0l-6.759-6.759 56.748-56.748c2.929-2.929 2.929-7.678 0-10.606-2.93-2.929-7.678-2.929-10.607 0l-56.748 56.748-17.291-17.291 125.34-125.34 45.189 45.189zm125.269-215.646c5.15-5.214 15.605-6.646 22.232 0l22.956 22.956c5.214 5.151 6.646 15.604 0 22.233l-45.042 45.042-45.189-45.189zm-208.483 208.482 16.886-16.886 29.191 29.191-35.235 35.235-12.525-40.769c-.737-2.401-.093-4.995 1.683-6.771z"/><path d="m310.371 135.745c-2.93-2.929-7.678-2.929-10.607 0l-17.559 17.559c-2.929 2.929-2.929 7.678 0 10.606 1.465 1.464 3.385 2.197 5.304 2.197s3.839-.732 5.304-2.197l17.559-17.559c2.928-2.928 2.928-7.677-.001-10.606z"/><circle cx="369.721" cy="76.395" r="7.338"/></g></svg>