<svg id="Capa_1" enable-background="new 0 0 512 512" height="512" viewBox="0 0 512 512" width="512" xmlns="http://www.w3.org/2000/svg"><g><path d="m256 88.177c-21.816 0-39.564 17.749-39.564 39.564 0 21.816 17.749 39.565 39.564 39.565s39.564-17.749 39.564-39.565c0-21.815-17.748-39.564-39.564-39.564zm0 64.13c-13.545 0-24.564-11.02-24.564-24.565s11.02-24.564 24.564-24.564 24.564 11.02 24.564 24.564-11.019 24.565-24.564 24.565z"/><path d="m432.355 47.064c8.556 0 15.516-6.96 15.516-15.516v-16.032c0-8.556-6.96-15.516-15.516-15.516h-352.71c-8.556 0-15.516 6.96-15.516 15.516v16.032c0 8.556 6.96 15.516 15.516 15.516h.517v385.807h-.517c-8.556 0-15.516 6.96-15.516 15.516v32.064c0 8.556 6.96 15.516 15.516 15.516h32.581v.516c0 8.556 6.96 15.516 15.516 15.516h32.065c8.556 0 15.516-6.96 15.516-15.516v-.516h136.79c4.142 0 7.5-3.358 7.5-7.5s-3.358-7.5-7.5-7.5h-136.79v-.516c0-8.556-6.96-15.516-15.516-15.516h-32.065c-8.556 0-15.516 6.96-15.516 15.516v.516h-32.581c-.285 0-.516-.231-.516-.516v-32.064c0-.285.231-.516.516-.516h352.71c.285 0 .516.231.516.516v32.064c0 .285-.231.516-.516.516h-32.581v-.516c0-8.556-6.96-15.516-15.516-15.516h-32.065c-8.556 0-15.516 6.96-15.516 15.516v16.032c0 8.556 6.96 15.516 15.516 15.516h32.065c8.556 0 15.516-6.96 15.516-15.516v-.516h32.581c8.556 0 15.516-6.96 15.516-15.516v-32.064c0-8.556-6.96-15.516-15.516-15.516h-.516v-385.807zm-305.129 433.388c0-.285.231-.516.516-.516h32.065c.285 0 .516.231.516.516v16.032c0 .285-.231.516-.516.516h-32.065c-.285 0-.516-.231-.516-.516zm257.548 16.032c0 .285-.231.516-.516.516h-32.065c-.285 0-.516-.231-.516-.516v-16.032c0-.285.231-.516.516-.516h32.065c.285 0 .516.231.516.516zm-289.612-101.104 82.66-82.66c3.327-3.326 8.741-3.327 12.067 0l57.488 57.488c4.445 4.445 10.354 6.893 16.64 6.893s12.195-2.448 16.64-6.893l17.408-17.407c1.611-1.612 3.754-2.499 6.033-2.499s4.421.887 6.033 2.499l80.07 80.07h-295.039zm316.251 37.491-90.676-90.676c-4.445-4.445-10.354-6.893-16.64-6.893s-12.195 2.448-16.64 6.893l-17.408 17.407c-1.611 1.612-3.754 2.499-6.033 2.499s-4.421-.887-6.033-2.499l-57.488-57.489c-9.176-9.174-24.105-9.174-33.28 0l-72.053 72.054v-74.981l98.693-98.692c1.611-1.612 3.753-2.499 6.033-2.499 2.279 0 4.421.888 6.033 2.499l89.553 89.553c9.176 9.176 24.105 9.174 33.279 0l41.456-41.456c3.327-3.326 8.741-3.327 12.067 0l34.563 34.563v149.716h-5.426zm-140.798-188.895 15.425-15.425c3.327-3.326 8.74-3.327 12.067 0l35.465 35.465-15.425 15.425c-3.327 3.326-8.739 3.326-12.066 0zm146.224 17.966-23.957-23.957c-9.176-9.174-24.105-9.173-33.28 0l-15.425 15.425-35.465-35.465c-9.175-9.176-24.105-9.175-33.28 0l-15.425 15.425-43.481-43.481c-4.445-4.445-10.354-6.893-16.64-6.893s-12.195 2.448-16.64 6.893l-88.086 88.085v-230.91h265.048c4.142 0 7.5-3.358 7.5-7.5s-3.358-7.5-7.5-7.5h-280.563c-.285 0-.516-.231-.516-.516v-16.032c0-.285.231-.516.516-.516h352.71c.285 0 .516.231.516.516v16.032c0 .285-.231.516-.516.516h-40.081c-4.142 0-7.5 3.358-7.5 7.5s3.358 7.5 7.5 7.5h24.564v214.878z"/></g></svg>