<svg height="512" viewBox="0 0 128 128" width="512" xmlns="http://www.w3.org/2000/svg"><g><path d="m64.617 56.178h-27.317a4.746 4.746 0 0 0 -4.741 4.74v10.653a4.747 4.747 0 0 0 4.741 4.741h27.317a4.746 4.746 0 0 0 4.74-4.741v-10.653a4.746 4.746 0 0 0 -4.74-4.74zm-13.7 16.634-5.159-13.134h5.242l5.164 13.134zm-14.862-1.241v-10.653a1.242 1.242 0 0 1 1.241-1.24h4.704l5.164 13.134h-9.864a1.243 1.243 0 0 1 -1.245-1.241zm29.8 0a1.242 1.242 0 0 1 -1.24 1.241h-4.7l-5.157-13.134h9.859a1.241 1.241 0 0 1 1.24 1.24z"/><path d="m106.053 54.348h-2.22v-19.738a10.735 10.735 0 0 0 -10.723-10.723h-1.391v-2.215a1.749 1.749 0 0 0 -2.02-1.729l-8.382 1.312a1.752 1.752 0 0 0 -1.48 1.729v4.673a1.75 1.75 0 0 0 1.48 1.729l8.383 1.314a1.749 1.749 0 0 0 2.02-1.729v-1.584h1.39a7.231 7.231 0 0 1 7.223 7.223v10.925h-3.417v-1.951a1.75 1.75 0 0 0 -3.5 0v7.4a1.75 1.75 0 1 0 3.5 0v-1.95h3.417v5.313h-2.22a4.7 4.7 0 0 0 -4.7 4.7v33.97a4.7 4.7 0 0 0 2.908 4.339v11.644a1.75 1.75 0 0 0 1.75 1.75h8.018a1.75 1.75 0 0 0 1.75-1.75v-11.644a4.7 4.7 0 0 0 2.908-4.339v-33.972a4.7 4.7 0 0 0 -4.694-4.697zm-17.834-27.424-4.882-.764v-1.679l4.882-.764zm8.7 32.121a1.2 1.2 0 0 1 1.2-1.2h7.94a1.2 1.2 0 0 1 1.2 1.2v33.972a1.2 1.2 0 0 1 -1.2 1.2h-7.94a1.2 1.2 0 0 1 -1.2-1.2zm7.426 48.205h-4.521v-9.536h4.518z"/><path d="m52.346 26.92 13.648 6.064a1.535 1.535 0 0 0 .221.081 8.122 8.122 0 0 0 2.278.328 8.069 8.069 0 1 0 -2.278-15.817 1.535 1.535 0 0 0 -.221.081l-13.648 6.065a1.749 1.749 0 0 0 0 3.2zm14.954-6.013a4.567 4.567 0 1 1 0 8.827l-9.932-4.413z"/><path d="m79.413 59.609h-2.1v-5.159a12.5 12.5 0 0 0 -12.49-12.492h-27.723a12.505 12.505 0 0 0 -12.495 12.492v5.159h-2.105a5.256 5.256 0 0 0 -5.25 5.249v2.773a5.256 5.256 0 0 0 5.25 5.25h2.105v11.519a26.355 26.355 0 1 0 52.709 0v-11.519h2.1a5.256 5.256 0 0 0 5.25-5.25v-2.773a5.256 5.256 0 0 0 -5.251-5.249zm-54.813 9.772h-2.1a1.752 1.752 0 0 1 -1.75-1.75v-2.773a1.752 1.752 0 0 1 1.75-1.749h2.1zm49.214 15.019a22.855 22.855 0 1 1 -45.709 0v-29.95a9 9 0 0 1 8.995-8.992h27.723a9 9 0 0 1 8.991 8.992zm7.349-16.764a1.753 1.753 0 0 1 -1.75 1.75h-2.1v-6.277h2.1a1.752 1.752 0 0 1 1.75 1.749z"/></g></svg>